<svg width="24" height="24" viewBox="0 0 24 24" fill="none" xmlns="http://www.w3.org/2000/svg">
<path d="M24 8.77365C24 9.14106 23.8595 9.49342 23.6093 9.75321C23.3591 10.013 23.0198 10.159 22.666 10.159H21.332V11.5443C21.332 11.9117 21.1915 12.264 20.9413 12.5238C20.6912 12.7836 20.3519 12.9296 19.9981 12.9296C19.6443 12.9296 19.305 12.7836 19.0548 12.5238C18.8046 12.264 18.6641 11.9117 18.6641 11.5443V10.159H17.3301C16.9763 10.159 16.637 10.013 16.3868 9.75321C16.1367 9.49342 15.9961 9.14106 15.9961 8.77365C15.9961 8.40624 16.1367 8.05388 16.3868 7.79409C16.637 7.53429 16.9763 7.38834 17.3301 7.38834H18.6641V6.00302C18.6641 5.63562 18.8046 5.28326 19.0548 5.02346C19.305 4.76366 19.6443 4.61771 19.9981 4.61771C20.3519 4.61771 20.6912 4.76366 20.9413 5.02346C21.1915 5.28326 21.332 5.63562 21.332 6.00302V7.38834H22.666C23.0198 7.38834 23.3591 7.53429 23.6093 7.79409C23.8595 8.05388 24 8.40624 24 8.77365ZM12.8835 4.61771H13.3282V5.07948C13.3282 5.44689 13.4687 5.79925 13.7189 6.05905C13.969 6.31884 14.3083 6.4648 14.6621 6.4648C15.0159 6.4648 15.3552 6.31884 15.6054 6.05905C15.8556 5.79925 15.9961 5.44689 15.9961 5.07948V4.61771H16.4408C16.7946 4.61771 17.1339 4.47176 17.384 4.21196C17.6342 3.95217 17.7748 3.59981 17.7748 3.2324C17.7748 2.86499 17.6342 2.51263 17.384 2.25283C17.1339 1.99304 16.7946 1.84708 16.4408 1.84708H15.9961V1.38531C15.9961 1.01791 15.8556 0.665546 15.6054 0.405749C15.3552 0.145952 15.0159 0 14.6621 0C14.3083 0 13.969 0.145952 13.7189 0.405749C13.4687 0.665546 13.3282 1.01791 13.3282 1.38531V1.84708H12.8835C12.5297 1.84708 12.1904 1.99304 11.9402 2.25283C11.6901 2.51263 11.5495 2.86499 11.5495 3.2324C11.5495 3.59981 11.6901 3.95217 11.9402 4.21196C12.1904 4.47176 12.5297 4.61771 12.8835 4.61771ZM21.3109 15.0514C21.4654 15.2377 21.5694 15.4634 21.6122 15.7052C21.655 15.947 21.635 16.1963 21.5544 16.4275C20.912 18.2481 19.8384 19.8714 18.4326 21.1475C17.0268 22.4236 15.3342 23.3114 13.5108 23.729C11.6875 24.1467 9.79229 24.0806 8.00002 23.5371C6.20776 22.9935 4.57621 21.9898 3.25595 20.6188C1.93568 19.2477 0.969233 17.5534 0.445787 15.6921C-0.07766 13.8309 -0.14124 11.8627 0.260915 9.96925C0.66307 8.07577 1.518 6.31799 2.74682 4.85811C3.97563 3.39824 5.53874 2.2833 7.29189 1.6162C7.51417 1.53186 7.75406 1.51045 7.98693 1.55415C8.21981 1.59786 8.4373 1.70512 8.61709 1.86492C8.79688 2.02472 8.9325 2.23132 9.01004 2.46351C9.08757 2.6957 9.10423 2.94513 9.05831 3.18622C8.94057 3.80989 8.88138 4.44394 8.88155 5.07948C8.8842 7.65049 9.86886 10.1154 11.6195 11.9334C13.3701 13.7514 15.7437 14.7739 18.2194 14.7767C18.8303 14.7766 19.4397 14.7151 20.0392 14.5931C20.2713 14.5456 20.5113 14.5629 20.7348 14.6435C20.9583 14.724 21.1571 14.8648 21.3109 15.0514ZM17.9971 17.5473C14.8909 17.4844 11.9288 16.1749 9.73196 13.8935C7.53513 11.6122 6.2742 8.5361 6.21359 5.31037C5.21384 6.05038 4.3814 7.00778 3.77424 8.11591C3.16707 9.22405 2.79976 10.4563 2.69788 11.7269C2.596 12.9974 2.762 14.2758 3.18432 15.4729C3.60664 16.6701 4.27513 17.7573 5.14326 18.6588C6.01139 19.5604 7.05829 20.2546 8.21109 20.6931C9.36389 21.1317 10.5949 21.3041 11.8184 21.1983C13.0418 21.0925 14.2284 20.7111 15.2955 20.0805C16.3626 19.45 17.2845 18.5855 17.9971 17.5473Z" fill="white"/>
</svg>
