<svg width="24" height="18" viewBox="0 0 24 18" fill="none" xmlns="http://www.w3.org/2000/svg">
<path d="M22.5 11.875H19.1147C19.1213 11.7503 19.125 11.6256 19.125 11.5C19.125 9.61034 18.3743 7.79807 17.0381 6.46187C15.7019 5.12567 13.8897 4.375 12 4.375C10.1103 4.375 8.29806 5.12567 6.96186 6.46187C5.62567 7.79807 4.875 9.61034 4.875 11.5C4.875 11.6256 4.875 11.7503 4.88531 11.875H1.5C1.20163 11.875 0.915483 11.9935 0.704505 12.2045C0.493526 12.4155 0.375 12.7016 0.375 13C0.375 13.2984 0.493526 13.5845 0.704505 13.7955C0.915483 14.0065 1.20163 14.125 1.5 14.125H22.5C22.7984 14.125 23.0845 14.0065 23.2955 13.7955C23.5065 13.5845 23.625 13.2984 23.625 13C23.625 12.7016 23.5065 12.4155 23.2955 12.2045C23.0845 11.9935 22.7984 11.875 22.5 11.875ZM7.125 11.5C7.125 10.2071 7.63861 8.9671 8.55285 8.05286C9.46709 7.13862 10.7071 6.625 12 6.625C13.2929 6.625 14.5329 7.13862 15.4471 8.05286C16.3614 8.9671 16.875 10.2071 16.875 11.5C16.875 11.6256 16.8684 11.7503 16.8591 11.875H7.14094C7.13156 11.7503 7.125 11.6256 7.125 11.5ZM20.625 16.75C20.625 17.0484 20.5065 17.3345 20.2955 17.5455C20.0845 17.7565 19.7984 17.875 19.5 17.875H4.5C4.20163 17.875 3.91548 17.7565 3.7045 17.5455C3.49353 17.3345 3.375 17.0484 3.375 16.75C3.375 16.4516 3.49353 16.1655 3.7045 15.9545C3.91548 15.7435 4.20163 15.625 4.5 15.625H19.5C19.7984 15.625 20.0845 15.7435 20.2955 15.9545C20.5065 16.1655 20.625 16.4516 20.625 16.75ZM1.18313 6.64469C1.27748 6.36182 1.48027 6.12798 1.74694 5.99455C2.01362 5.86113 2.32236 5.83904 2.60531 5.93313L3.73031 6.30813C3.87199 6.35356 4.00326 6.42664 4.1165 6.52314C4.22975 6.61964 4.32273 6.73765 4.39005 6.87033C4.45738 7.00301 4.49772 7.14773 4.50874 7.29611C4.51975 7.44449 4.50123 7.59358 4.45424 7.73474C4.40724 7.87591 4.33271 8.00636 4.23496 8.11853C4.13721 8.2307 4.01818 8.32236 3.88476 8.38822C3.75134 8.45407 3.60618 8.4928 3.45769 8.50218C3.3092 8.51155 3.16033 8.49137 3.01969 8.44282L1.89469 8.06782C1.75452 8.0211 1.62492 7.94724 1.5133 7.85043C1.40167 7.75363 1.31021 7.63579 1.24414 7.50364C1.17806 7.37149 1.13866 7.22761 1.1282 7.08023C1.11773 6.93285 1.13639 6.78486 1.18313 6.64469ZM6.43313 2.10625C6.38201 1.96507 6.35967 1.81508 6.36743 1.66513C6.37519 1.51518 6.41289 1.3683 6.4783 1.23315C6.54372 1.098 6.63552 0.977309 6.74831 0.878194C6.8611 0.779079 6.99259 0.703545 7.13503 0.656045C7.27747 0.608544 7.42798 0.590038 7.57768 0.601617C7.72738 0.613195 7.87326 0.654625 8.0067 0.723463C8.14014 0.792301 8.25845 0.887156 8.35466 1.00244C8.45086 1.11771 8.52302 1.25109 8.56687 1.39469L8.94187 2.51969C8.99299 2.66087 9.01533 2.81086 9.00757 2.96081C8.99981 3.11076 8.96211 3.25764 8.8967 3.39279C8.83128 3.52794 8.73948 3.64864 8.62669 3.74775C8.5139 3.84686 8.38241 3.9224 8.23997 3.9699C8.09753 4.0174 7.94702 4.03591 7.79732 4.02433C7.64762 4.01275 7.50174 3.97132 7.3683 3.90248C7.23486 3.83364 7.11655 3.73879 7.02034 3.62351C6.92414 3.50823 6.85198 3.37486 6.80813 3.23125L6.43313 2.10625ZM19.5581 7.73125C19.5114 7.59109 19.4927 7.44309 19.5032 7.29571C19.5137 7.14833 19.5531 7.00446 19.6191 6.87231C19.6852 6.74016 19.7767 6.62231 19.8883 6.52551C19.9999 6.42871 20.1295 6.35484 20.2697 6.30813L21.3947 5.93313C21.6768 5.84269 21.9831 5.86714 22.2473 6.00118C22.5114 6.13522 22.712 6.36803 22.8056 6.64908C22.8991 6.93012 22.8781 7.23673 22.747 7.50234C22.6159 7.76796 22.3853 7.97115 22.1053 8.06782L20.9803 8.44282C20.6974 8.53691 20.3886 8.51481 20.1219 8.38139C19.8553 8.24796 19.6525 8.01412 19.5581 7.73125ZM15.0581 2.51969L15.4331 1.39469C15.477 1.25109 15.5491 1.11771 15.6453 1.00244C15.7416 0.887156 15.8599 0.792301 15.9933 0.723463C16.1267 0.654625 16.2726 0.613195 16.4223 0.601617C16.572 0.590038 16.7225 0.608544 16.865 0.656045C17.0074 0.703545 17.1389 0.779079 17.2517 0.878194C17.3645 0.977309 17.4563 1.098 17.5217 1.23315C17.5871 1.3683 17.6248 1.51518 17.6326 1.66513C17.6403 1.81508 17.618 1.96507 17.5669 2.10625L17.1919 3.23125C17.148 3.37486 17.0759 3.50823 16.9797 3.62351C16.8834 3.73879 16.7651 3.83364 16.6317 3.90248C16.4983 3.97132 16.3524 4.01275 16.2027 4.02433C16.053 4.03591 15.9025 4.0174 15.76 3.9699C15.6176 3.9224 15.4861 3.84686 15.3733 3.74775C15.2605 3.64864 15.1687 3.52794 15.1033 3.39279C15.0379 3.25764 15.0002 3.11076 14.9924 2.96081C14.9847 2.81086 15.007 2.66087 15.0581 2.51969Z" fill="white"/>
</svg>
