<svg width="39" height="22" viewBox="0 0 39 22" fill="none" xmlns="http://www.w3.org/2000/svg">
<path d="M38.2497 4.34054L21.2989 21.2538C21.0627 21.4903 20.782 21.678 20.4729 21.806C20.1639 21.9341 19.8325 22 19.4979 22C19.1632 22 18.8319 21.9341 18.5228 21.806C18.2138 21.678 17.9331 21.4903 17.6969 21.2538L0.74601 4.34054C0.268348 3.86394 -7.11772e-09 3.21752 0 2.54351C7.11772e-09 1.86949 0.268348 1.22307 0.74601 0.74647C1.22367 0.269867 1.87152 0.00211462 2.54704 0.00211461C3.22255 0.0021146 3.8704 0.269867 4.34806 0.74647L19.5 15.8648L34.6519 0.744357C35.1296 0.267754 35.7774 0 36.453 0C37.1285 0 37.7763 0.267754 38.254 0.744357C38.7316 1.22096 39 1.86737 39 2.54139C39 3.21541 38.7316 3.86182 38.254 4.33843L38.2497 4.34054Z" fill="#98959D"/>
</svg>
