<svg width="34" height="35" viewBox="0 0 34 35" fill="none" xmlns="http://www.w3.org/2000/svg">
<path d="M0 10.3684C0 8.4828 0 7.53999 0.585786 6.95421C1.17157 6.36842 2.11438 6.36842 4 6.36842H30C31.8856 6.36842 32.8284 6.36842 33.4142 6.95421C34 7.53999 34 8.4828 34 10.3684V13.7895C34 14.2609 34 14.4966 33.8536 14.643C33.7071 14.7895 33.4714 14.7895 33 14.7895H1C0.528596 14.7895 0.292893 14.7895 0.146447 14.643C0 14.4966 0 14.2609 0 13.7895V10.3684Z" fill="#FFC100"/>
<path fill-rule="evenodd" clip-rule="evenodd" d="M0 31C0 32.8856 0 33.8284 0.585786 34.4142C1.17157 35 2.11438 35 4 35H30C31.8856 35 32.8284 35 33.4142 34.4142C34 33.8284 34 32.8856 34 31V19.1579C34 18.6865 34 18.4508 33.8536 18.3043C33.7071 18.1579 33.4714 18.1579 33 18.1579H1C0.528596 18.1579 0.292893 18.1579 0.146447 18.3043C0 18.4508 0 18.6865 0 19.1579V31ZM10.9 26.5789C10.9 26.0267 11.3477 25.5789 11.9 25.5789H16V21.5263C16 20.974 16.4477 20.5263 17 20.5263C17.5523 20.5263 18 20.974 18 21.5263V25.5789H22.1C22.6523 25.5789 23.1 26.0267 23.1 26.5789C23.1 27.1312 22.6523 27.5789 22.1 27.5789H18V31.6316C18 32.1839 17.5523 32.6316 17 32.6316C16.4477 32.6316 16 32.1839 16 31.6316V27.5789H11.9C11.3477 27.5789 10.9 27.1312 10.9 26.5789Z" fill="#FFC100"/>
<path d="M9 1L9 8" stroke="#FFC100" stroke-width="2" stroke-linecap="round"/>
<path d="M25 1L25 8" stroke="#FFC100" stroke-width="2" stroke-linecap="round"/>
</svg>
