<svg width="33" height="34" viewBox="0 0 33 34" fill="none" xmlns="http://www.w3.org/2000/svg">
<path d="M29.7 2.51852H26.4V1.88889C26.4 1.38792 26.1914 0.907478 25.8201 0.553243C25.4487 0.199007 24.9451 0 24.42 0C23.8949 0 23.3913 0.199007 23.0199 0.553243C22.6486 0.907478 22.44 1.38792 22.44 1.88889V2.51852H10.56V1.88889C10.56 1.38792 10.3514 0.907478 9.98007 0.553243C9.60875 0.199007 9.10513 0 8.58 0C8.05487 0 7.55125 0.199007 7.17993 0.553243C6.80861 0.907478 6.6 1.38792 6.6 1.88889V2.51852H3.3C2.42479 2.51852 1.58542 2.8502 0.966548 3.44059C0.347678 4.03098 0 4.83173 0 5.66667V30.8519C0 31.6868 0.347678 32.4875 0.966548 33.0779C1.58542 33.6683 2.42479 34 3.3 34H29.7C30.5752 34 31.4146 33.6683 32.0335 33.0779C32.6523 32.4875 33 31.6868 33 30.8519V5.66667C33 4.83173 32.6523 4.03098 32.0335 3.44059C31.4146 2.8502 30.5752 2.51852 29.7 2.51852ZM6.6 6.2963C6.6 6.79726 6.80861 7.27771 7.17993 7.63194C7.55125 7.98618 8.05487 8.18518 8.58 8.18518C9.10513 8.18518 9.60875 7.98618 9.98007 7.63194C10.3514 7.27771 10.56 6.79726 10.56 6.2963H22.44C22.44 6.79726 22.6486 7.27771 23.0199 7.63194C23.3913 7.98618 23.8949 8.18518 24.42 8.18518C24.9451 8.18518 25.4487 7.98618 25.8201 7.63194C26.1914 7.27771 26.4 6.79726 26.4 6.2963H29.04V10.0741H3.96V6.2963H6.6ZM3.96 30.2222V13.8519H29.04V30.2222H3.96Z" fill="#FFC100"/>
</svg>
