<svg width="24" height="24" viewBox="0 0 24 24" fill="none" xmlns="http://www.w3.org/2000/svg">
<path d="M15.6858 5.42026C15.0398 5.42033 14.396 5.50411 13.7673 5.66993C13.5803 5.36464 13.3717 5.07651 13.1437 4.80829L13.9304 3.55184C14.1202 3.24909 14.1946 2.87452 14.1372 2.51051C14.0798 2.1465 13.8953 1.82288 13.6244 1.61084C13.3534 1.39879 13.0182 1.3157 12.6924 1.37983C12.3666 1.44397 12.077 1.65008 11.8872 1.95282L11.0994 3.21392C10.3687 2.85642 9.58333 2.6593 8.786 2.6333L8.54696 1.1237C8.48377 0.765891 8.29755 0.450026 8.02827 0.243903C7.759 0.0377802 7.42813 -0.0421716 7.10669 0.0212092C6.78525 0.0845901 6.49886 0.286251 6.309 0.582908C6.11913 0.879564 6.04092 1.24757 6.09115 1.60793L6.33018 3.11754C5.58908 3.44662 4.91135 3.93148 4.33373 4.54585L3.20507 3.66215C2.93412 3.45011 2.59888 3.36702 2.2731 3.43115C1.94732 3.49529 1.65769 3.7014 1.46792 4.00414C1.27814 4.30688 1.20377 4.68146 1.26117 5.04547C1.31857 5.40947 1.50304 5.7331 1.77398 5.94514L2.90264 6.82652C2.58183 7.64223 2.40537 8.51961 2.383 9.41026L1.03194 9.67735C0.724562 9.73751 0.44854 9.92425 0.258362 10.2007C0.0681835 10.4771 -0.0223314 10.8232 0.00468514 11.1706C0.0317017 11.5179 0.174286 11.8414 0.404292 12.077C0.634298 12.3126 0.935012 12.4434 1.24707 12.4434C1.32021 12.4433 1.39322 12.4363 1.46532 12.4225L2.81638 12.1554C2.9184 12.4447 3.03784 12.726 3.17389 12.9973C2.38489 13.9171 1.85507 15.0756 1.65023 16.3289C1.44539 17.5822 1.57455 18.8751 2.02168 20.0471C2.46882 21.2191 3.21421 22.2186 4.16531 22.9213C5.11641 23.624 6.2313 23.9991 7.37154 24H15.6858C17.8908 24 20.0056 23.0212 21.5648 21.2791C23.124 19.5369 24 17.174 24 14.7101C24 12.2463 23.124 9.88339 21.5648 8.1412C20.0056 6.39901 17.8908 5.42026 15.6858 5.42026ZM8.61867 5.42026C9.13535 5.42072 9.64634 5.54075 10.1194 5.77279C10.5926 6.00482 11.0175 6.34383 11.3676 6.76845C9.88814 7.77103 8.72388 9.26221 8.03564 11.036C7.81516 11.008 7.59344 10.9941 7.37154 10.9942C6.64861 10.9941 5.93203 11.1449 5.25869 11.4389C4.97943 10.8016 4.84996 10.0954 4.88247 9.38671C4.91498 8.67804 5.1084 7.99028 5.44451 7.38821C5.78062 6.78614 6.24836 6.28958 6.80368 5.94529C7.35899 5.601 7.9836 5.42032 8.61867 5.42026ZM15.6858 21.213H7.37154C6.48951 21.213 5.64361 20.8215 5.01992 20.1247C4.39623 19.4278 4.04585 18.4826 4.04585 17.4971C4.04585 16.5116 4.39623 15.5664 5.01992 14.8695C5.64361 14.1726 6.48951 13.7811 7.37154 13.7811H7.40064C7.38921 13.9089 7.37985 14.0366 7.37362 14.1644C7.35432 14.5339 7.46721 14.8969 7.68745 15.1735C7.90769 15.4501 8.21724 15.6176 8.548 15.6391C8.87876 15.6607 9.20364 15.5345 9.45117 15.2885C9.69869 15.0424 9.84859 14.6965 9.86789 14.3269C9.88988 13.8955 9.95046 13.4675 10.0487 13.0496L10.0643 12.9857C10.3508 11.8152 10.9245 10.7574 11.7205 9.93186C12.5166 9.10629 13.5033 8.54578 14.5693 8.31357C15.6353 8.08137 16.7382 8.18672 17.7534 8.61775C18.7687 9.04877 19.6559 9.7883 20.315 10.7529C20.974 11.7174 21.3787 12.8686 21.4832 14.0765C21.5878 15.2844 21.3881 16.5009 20.9067 17.5887C20.4252 18.6765 19.6813 19.5923 18.7588 20.2327C17.8362 20.8731 16.7719 21.2127 15.6858 21.213Z" fill="white"/>
</svg>
