<svg width="33" height="34" viewBox="0 0 33 34" fill="none" xmlns="http://www.w3.org/2000/svg">
<path fill-rule="evenodd" clip-rule="evenodd" d="M19.5644 0.259526C19.8504 0.519051 19.892 0.948298 19.9754 1.80679L20.1195 3.29137C20.281 4.9559 20.3618 5.78816 20.9215 6.01615C21.4812 6.24413 22.1205 5.7052 23.3992 4.62733L24.4081 3.77678C25.0841 3.20697 25.4221 2.92207 25.8154 2.94174C26.2088 2.9614 26.5166 3.2786 27.1324 3.91299L29.2769 6.12257C29.8598 6.72312 30.1513 7.02339 30.17 7.39979C30.1887 7.77619 29.9285 8.10389 29.408 8.75928L28.3967 10.0327C27.3943 11.295 26.8931 11.9262 27.123 12.4722C27.3528 13.0182 28.1546 13.1008 29.758 13.266L31.205 13.4151C32.0583 13.503 32.4849 13.5469 32.7425 13.8324C33 14.1178 33 14.5467 33 15.4045V18.5955C33 19.4533 33 19.8822 32.7425 20.1676C32.4849 20.4531 32.0583 20.497 31.205 20.5849L29.7586 20.734C28.1552 20.8992 27.3535 20.9818 27.1236 21.5278C26.8937 22.0737 27.3949 22.7049 28.3973 23.9672L29.4081 25.24C29.9285 25.8954 30.1888 26.2231 30.1701 26.5995C30.1513 26.9759 29.8599 27.2761 29.277 27.8767L27.1324 30.0863C26.5167 30.7206 26.2088 31.0378 25.8155 31.0575C25.4221 31.0772 25.0842 30.7923 24.4082 30.2225L23.3992 29.3719C22.1206 28.294 21.4813 27.7551 20.9216 27.9831C20.3619 28.2111 20.2811 29.0433 20.1195 30.7079L19.9754 32.1932C19.892 33.0517 19.8504 33.4809 19.5644 33.7405C19.2785 34 18.8472 34 17.9847 34H15.0153C14.1528 34 13.7215 34 13.4356 33.7405C13.1496 33.4809 13.108 33.0517 13.0246 32.1932L12.8805 30.7085C12.719 29.044 12.6382 28.2118 12.0785 27.9838C11.5188 27.7558 10.8795 28.2947 9.60084 29.3726L8.59172 30.2232C7.91578 30.7931 7.5778 31.078 7.18446 31.0583C6.79111 31.0386 6.48325 30.7214 5.86751 30.087L3.72293 27.8775L3.72292 27.8774C3.14004 27.2769 2.84859 26.9766 2.82989 26.6002C2.81118 26.2238 3.07141 25.8961 3.59187 25.2407L4.60316 23.9672C5.60558 22.7049 6.10679 22.0738 5.87692 21.5278C5.64705 20.9818 4.84534 20.8992 3.24192 20.734L1.79502 20.5849C0.94173 20.497 0.515084 20.4531 0.257542 20.1676C0 19.8822 0 19.4533 0 18.5955V15.4045C0 14.5467 0 14.1178 0.257542 13.8324C0.515084 13.5469 0.941731 13.503 1.79502 13.4151L3.24254 13.2659H3.24255C4.84596 13.1007 5.64767 13.0181 5.87754 12.4721C6.10741 11.9261 5.6062 11.295 4.60379 10.0327L3.59194 8.75851C3.07148 8.10312 2.81125 7.77542 2.82996 7.39902C2.84867 7.02262 3.14012 6.72235 3.723 6.1218L5.86759 3.91222C6.48332 3.27783 6.79119 2.96063 7.18454 2.94096C7.57788 2.9213 7.91585 3.2062 8.5918 3.77601L9.60091 4.62666C10.8796 5.70453 11.5189 6.24346 12.0786 6.01548C12.6383 5.78749 12.7191 4.95523 12.8806 3.29071L13.0246 1.80679C13.108 0.948298 13.1496 0.519051 13.4356 0.259526C13.7215 0 14.1528 0 15.0153 0H17.9847C18.8472 0 19.2785 0 19.5644 0.259526ZM16.5 23.8C20.1451 23.8 23.1 20.7555 23.1 17C23.1 13.2445 20.1451 10.2 16.5 10.2C12.8549 10.2 9.9 13.2445 9.9 17C9.9 20.7555 12.8549 23.8 16.5 23.8Z" fill="#FFC100"/>
</svg>
