<svg width="30" height="35" viewBox="0 0 30 35" fill="none" xmlns="http://www.w3.org/2000/svg">
<path d="M25.2273 11.2479C24.5195 11.2469 23.8205 11.3917 23.1818 11.6713V6.87246C23.1816 6.11422 22.9665 5.36906 22.5575 4.71001C22.1485 4.05096 21.5597 3.50066 20.8489 3.11306C20.138 2.72546 19.3295 2.51386 18.5026 2.49901C17.6756 2.48416 16.8587 2.66657 16.1318 3.02836C15.7819 2.03699 15.0575 1.19265 14.0891 0.647255C13.1206 0.101858 11.9716 -0.108788 10.8488 0.0532187C9.72607 0.215225 8.70322 0.739247 7.96432 1.531C7.22543 2.32275 6.81901 3.33025 6.81818 4.37223V5.42076C6.17951 5.14109 5.48052 4.99637 4.77273 4.99729C3.50692 4.99729 2.29296 5.45826 1.3979 6.27881C0.50284 7.09936 0 8.21226 0 9.37268V21.2488C0 24.8958 1.58035 28.3935 4.3934 30.9724C7.20644 33.5512 11.0218 35 15 35C18.9782 35 22.7936 33.5512 25.6066 30.9724C28.4196 28.3935 30 24.8958 30 21.2488V15.6232C30 14.4628 29.4972 13.3499 28.6021 12.5294C27.707 11.7088 26.4931 11.2479 25.2273 11.2479ZM27.2727 21.2488C27.2727 24.2327 25.9797 27.0945 23.6781 29.2044C21.3765 31.3144 18.2549 32.4998 15 32.4998C11.7451 32.4998 8.62345 31.3144 6.32187 29.2044C4.02029 27.0945 2.72727 24.2327 2.72727 21.2488V9.37268C2.72727 8.87536 2.94278 8.3984 3.32637 8.04674C3.70997 7.69507 4.23024 7.49751 4.77273 7.49751C5.31522 7.49751 5.83549 7.69507 6.21908 8.04674C6.60268 8.3984 6.81818 8.87536 6.81818 9.37268V16.2483C6.81818 16.5799 6.96185 16.8978 7.21758 17.1323C7.47331 17.3667 7.82016 17.4984 8.18182 17.4984C8.54348 17.4984 8.89032 17.3667 9.14605 17.1323C9.40179 16.8978 9.54545 16.5799 9.54545 16.2483V4.37223C9.54545 3.8749 9.76096 3.39795 10.1446 3.04628C10.5282 2.69462 11.0484 2.49706 11.5909 2.49706C12.1334 2.49706 12.6537 2.69462 13.0373 3.04628C13.4209 3.39795 13.6364 3.8749 13.6364 4.37223V14.9982C13.6364 15.3297 13.78 15.6477 14.0358 15.8822C14.2915 16.1166 14.6383 16.2483 15 16.2483C15.3617 16.2483 15.7085 16.1166 15.9642 15.8822C16.22 15.6477 16.3636 15.3297 16.3636 14.9982V6.87246C16.3636 6.37513 16.5791 5.89817 16.9627 5.54651C17.3463 5.19485 17.8666 4.99729 18.4091 4.99729C18.9516 4.99729 19.4718 5.19485 19.8554 5.54651C20.239 5.89817 20.4545 6.37513 20.4545 6.87246V17.6031C18.5492 17.9009 16.82 18.8064 15.5724 20.1598C14.3247 21.5131 13.639 23.2272 13.6364 24.9991C13.6364 25.3306 13.78 25.6486 14.0358 25.8831C14.2915 26.1175 14.6383 26.2492 15 26.2492C15.3617 26.2492 15.7085 26.1175 15.9642 25.8831C16.22 25.6486 16.3636 25.3306 16.3636 24.9991C16.3636 23.6729 16.9383 22.401 17.9612 21.4632C18.9842 20.5255 20.3715 19.9986 21.8182 19.9986C22.1798 19.9986 22.5267 19.8669 22.7824 19.6325C23.0382 19.3981 23.1818 19.0801 23.1818 18.7485V15.6232C23.1818 15.1259 23.3973 14.649 23.7809 14.2973C24.1645 13.9456 24.6848 13.7481 25.2273 13.7481C25.7698 13.7481 26.29 13.9456 26.6736 14.2973C27.0572 14.649 27.2727 15.1259 27.2727 15.6232V21.2488Z" fill="black"/>
</svg>
