<svg width="23" height="22" viewBox="0 0 23 22" fill="none" xmlns="http://www.w3.org/2000/svg">
<path d="M13.6361 2.36144L14.6312 2.26194L13.6361 2.36144ZM13.4838 1.54161L12.595 2V2L13.4838 1.54161ZM13.9311 3.81793L14.7261 3.21141L14.7261 3.21141L13.9311 3.81793ZM14.8595 4.20248L14.7261 3.21141L14.8595 4.20248ZM16.0979 3.38113L16.7311 4.15509L16.7311 4.15509L16.0979 3.38113ZM16.7853 2.90918L17.0896 3.86175L16.7853 2.90918ZM17.4872 2.94419L17.8848 2.02663L17.8848 2.02663L17.4872 2.94419ZM18.1243 3.4822L17.4172 4.1893L17.4172 4.18931L18.1243 3.4822ZM19.0178 4.37567L19.7249 3.66856L19.7249 3.66856L19.0178 4.37567ZM19.5558 5.01275L20.4733 4.61517L20.4733 4.61516L19.5558 5.01275ZM19.5908 5.71464L20.5434 6.01895L20.5434 6.01894L19.5908 5.71464ZM19.1188 6.4021L18.3449 5.76886L18.3449 5.76886L19.1188 6.4021ZM18.2975 7.64056L17.3064 7.50724L17.3064 7.50725L18.2975 7.64056ZM18.682 8.56893L18.0755 9.36398L18.0755 9.36399L18.682 8.56893ZM20.1385 8.86385L20.238 7.86882L20.1385 8.86385ZM20.9584 9.01624L21.4168 8.1275L21.4168 8.1275L20.9584 9.01624ZM21.4299 9.53729L22.3599 9.1696L22.3599 9.1696L21.4299 9.53729ZM21.43 12.4626L20.5 12.095L20.5 12.095L21.43 12.4626ZM20.9583 12.9838L21.4166 13.8726L21.4166 13.8726L20.9583 12.9838ZM20.1386 13.1361L20.0391 12.1411L20.0065 12.1444L19.9742 12.1497L20.1386 13.1361ZM20.1386 13.1361L20.2381 14.1312L20.2707 14.1279L20.303 14.1225L20.1386 13.1361ZM18.6825 13.4309L18.0762 12.6357L18.0762 12.6357L18.6825 13.4309ZM18.2979 14.3596L17.3068 14.4931V14.4931L18.2979 14.3596ZM19.119 15.5976L18.345 16.2308H18.345L19.119 15.5976ZM19.5908 16.2848L18.6383 16.5892V16.5892L19.5908 16.2848ZM19.5558 16.9869L18.6383 16.5892L18.6383 16.5892L19.5558 16.9869ZM19.0179 17.6238L19.725 18.3309H19.725L19.0179 17.6238ZM18.1243 18.5174L17.4172 17.8102L17.4172 17.8103L18.1243 18.5174ZM17.4873 19.0554L17.8849 19.9729L17.8849 19.9729L17.4873 19.0554ZM16.7854 19.0904L16.481 20.0429L16.481 20.0429L16.7854 19.0904ZM16.0979 18.6184L16.7312 17.8444L16.7226 17.8376L16.0979 18.6184ZM16.0979 18.6184L15.4646 19.3924L15.4732 19.3993L16.0979 18.6184ZM14.8595 17.7971L14.9928 16.806H14.9928L14.8595 17.7971ZM13.9311 18.1816L14.7262 18.7882L14.7262 18.7881L13.9311 18.1816ZM13.6362 19.6383L12.6411 19.5388V19.5388L13.6362 19.6383ZM13.4837 20.4585L12.595 20L12.595 20L13.4837 20.4585ZM12.9628 20.9299L12.595 20L12.595 20L12.9628 20.9299ZM10.0373 20.9299L10.405 20L10.0373 20.9299ZM9.51624 20.4584L10.405 20H10.405L9.51624 20.4584ZM9.36385 19.6385L8.36882 19.7381V19.7381L9.36385 19.6385ZM9.06892 18.182L8.27387 18.7885L8.27387 18.7885L9.06892 18.182ZM8.14057 17.7975L8.00728 16.8064H8.00727L8.14057 17.7975ZM6.90208 18.6189L6.26884 17.8449L6.253 17.8579L6.23771 17.8714L6.90208 18.6189ZM6.90206 18.6189L7.5353 19.3928L7.55113 19.3799L7.56643 19.3663L6.90206 18.6189ZM6.21458 19.0908L6.51887 20.0434H6.51887L6.21458 19.0908ZM5.51272 19.0558L5.11515 19.9734H5.11515L5.51272 19.0558ZM4.87561 18.5178L5.58271 17.8107H5.58271L4.87561 18.5178ZM3.98217 17.6243L3.27506 18.3315L3.27506 18.3315L3.98217 17.6243ZM3.44414 16.9873L4.36171 16.5897L4.36171 16.5897L3.44414 16.9873ZM3.40913 16.2854L4.36171 16.5897L4.36171 16.5897L3.40913 16.2854ZM3.8811 15.5979L4.65506 16.2311H4.65506L3.8811 15.5979ZM4.70247 14.3594L5.69355 14.4928L4.70247 14.3594ZM4.31792 13.4311L4.92445 12.636L4.92445 12.636L4.31792 13.4311ZM2.86143 13.1361L2.76193 14.1312H2.76193L2.86143 13.1361ZM2.04161 12.9838L2.5 12.095H2.5L2.04161 12.9838ZM1.57005 12.4627L0.640094 12.8304L0.640095 12.8304L1.57005 12.4627ZM1.57008 9.53721L0.640169 9.16944L0.640168 9.16944L1.57008 9.53721ZM2.04152 9.01628L1.58305 8.12757L1.58305 8.12757L2.04152 9.01628ZM2.86155 8.86384V7.86384H2.81167L2.76205 7.86881L2.86155 8.86384ZM2.86156 8.86384V9.86384H2.91143L2.96106 9.85888L2.86156 8.86384ZM4.31842 8.56881L3.71178 7.77383L3.71177 7.77383L4.31842 8.56881ZM4.70287 7.64066L5.69396 7.50749L5.69396 7.50749L4.70287 7.64066ZM3.88128 6.40182L4.65523 5.76858H4.65523L3.88128 6.40182ZM3.40914 5.71405L4.36175 5.40988L4.36175 5.40988L3.40914 5.71405ZM3.44413 5.01243L2.52651 4.61498L2.52651 4.61498L3.44413 5.01243ZM3.98233 4.37509L4.68944 5.0822H4.68944L3.98233 4.37509ZM4.87565 3.48177L4.16855 2.77466V2.77466L4.87565 3.48177ZM5.51277 2.94373L5.1152 2.02615L5.1152 2.02616L5.51277 2.94373ZM6.21463 2.90872L6.51892 1.95614V1.95614L6.21463 2.90872ZM6.9022 3.38076L7.53543 2.60681V2.60681L6.9022 3.38076ZM8.14044 4.20207L8.27391 3.21101L8.14044 4.20207ZM9.06907 3.81742L8.27391 3.21101L8.27391 3.21101L9.06907 3.81742ZM9.36387 2.36131L10.3589 2.46081V2.46081L9.36387 2.36131ZM9.51619 1.5417L8.62739 1.08341L8.62739 1.08341L9.51619 1.5417ZM10.0374 1.07001L10.405 2L10.405 2L10.0374 1.07001ZM12.9627 1.07005L13.3304 0.140096V0.140096L12.9627 1.07005ZM14.6312 2.26194C14.6108 2.05831 14.5912 1.85693 14.5626 1.6868C14.5324 1.50684 14.4828 1.29705 14.3725 1.08322L12.595 2C12.5721 1.95549 12.5769 1.93878 12.5902 2.01798C12.6052 2.10701 12.6181 2.23089 12.6411 2.46094L14.6312 2.26194ZM14.7261 3.21141C14.7894 3.29433 14.7693 3.33101 14.7342 3.13595C14.7008 2.95045 14.6739 2.68915 14.6312 2.26194L12.6411 2.46094C12.6805 2.85459 12.7152 3.20895 12.7658 3.49017C12.8147 3.76184 12.9009 4.11633 13.136 4.42445L14.7261 3.21141ZM14.7261 3.21141L14.7261 3.21141L13.136 4.42444C13.5718 4.99575 14.2806 5.28935 14.9928 5.19355L14.7261 3.21141ZM15.4646 2.60717C15.1323 2.87905 14.9286 3.04481 14.7738 3.15238C14.6111 3.26548 14.6228 3.22531 14.7261 3.21141L14.9928 5.19355C15.3768 5.14188 15.6885 4.95223 15.9152 4.7947C16.1498 4.63163 16.4249 4.4056 16.7311 4.15509L15.4646 2.60717ZM16.481 1.95661C16.2518 2.02983 16.0684 2.14308 15.9198 2.24897C15.7793 2.34907 15.623 2.47759 15.4646 2.60717L16.7311 4.15509C16.91 4.00869 17.0068 3.93022 17.0803 3.87784C17.1457 3.83124 17.1373 3.84651 17.0896 3.86175L16.481 1.95661ZM17.8848 2.02663C17.4408 1.83421 16.942 1.80934 16.481 1.95661L17.0896 3.86175L17.0896 3.86175L17.8848 2.02663ZM18.8314 2.77509C18.6867 2.6304 18.544 2.48696 18.4142 2.37338C18.2768 2.25323 18.1056 2.12228 17.8848 2.02663L17.0896 3.86175C17.0437 3.84184 17.0369 3.82581 17.0973 3.87869C17.1653 3.93813 17.2537 4.02583 17.4172 4.1893L18.8314 2.77509ZM19.7249 3.66856L18.8314 2.77509L17.4172 4.18931L18.3107 5.08277L19.7249 3.66856ZM20.4733 4.61516C20.3777 4.39441 20.2467 4.22316 20.1266 4.08581C20.013 3.95597 19.8696 3.81326 19.7249 3.66856L18.3106 5.08277C18.4741 5.24626 18.5618 5.33469 18.6213 5.40264C18.6742 5.46308 18.6581 5.45629 18.6382 5.41034L20.4733 4.61516ZM20.5434 6.01894C20.6906 5.55797 20.6658 5.05922 20.4733 4.61517L18.6382 5.41034L18.6382 5.41034L20.5434 6.01894ZM19.8928 7.03534C20.0224 6.87696 20.1509 6.72069 20.251 6.58019C20.3569 6.43156 20.4701 6.24814 20.5434 6.01895L18.6382 5.41033C18.6535 5.36263 18.6687 5.35427 18.6221 5.41968C18.5697 5.4932 18.4913 5.58992 18.3449 5.76886L19.8928 7.03534ZM19.2885 7.77387C19.2746 7.87723 19.2345 7.88894 19.3476 7.72619C19.4551 7.57141 19.6209 7.36764 19.8928 7.03534L18.3449 5.76886C18.0943 6.07506 17.8683 6.35016 17.7052 6.58481C17.5477 6.81148 17.3581 7.12317 17.3064 7.50724L19.2885 7.77387ZM19.2885 7.77387V7.77386L17.3064 7.50725C17.2106 8.21938 17.5042 8.92816 18.0755 9.36398L19.2885 7.77387ZM20.238 7.86882C19.8108 7.82609 19.5495 7.79922 19.364 7.76584C19.1689 7.73073 19.2056 7.7106 19.2885 7.77387L18.0755 9.36399C18.3836 9.59904 18.7381 9.68533 19.0098 9.73422C19.291 9.78483 19.6454 9.81952 20.039 9.85889L20.238 7.86882ZM21.4168 8.1275C21.203 8.01721 20.9932 7.96759 20.8132 7.93737C20.6431 7.9088 20.4417 7.88918 20.238 7.86882L20.039 9.85889C20.2691 9.8819 20.393 9.8948 20.482 9.90976C20.5612 9.92305 20.5445 9.92795 20.5 9.90499L21.4168 8.1275ZM22.3599 9.1696C22.182 8.71957 21.8469 8.34933 21.4168 8.1275L20.5 9.90499L20.5 9.90499L22.3599 9.1696ZM22.5 10.3682C22.5 10.1636 22.5005 9.96126 22.489 9.78912C22.4769 9.60704 22.4484 9.39334 22.3599 9.1696L20.5 9.90499C20.4816 9.85841 20.4881 9.84227 20.4935 9.9224C20.4995 10.0125 20.5 10.137 20.5 10.3682H22.5ZM22.5 11.6319V10.3682H20.5V11.6319H22.5ZM22.36 12.8302C22.4484 12.6065 22.4769 12.3929 22.489 12.2108C22.5005 12.0388 22.5 11.8365 22.5 11.6319H20.5C20.5 11.863 20.4995 11.9875 20.4935 12.0776C20.4881 12.1577 20.4816 12.1416 20.5 12.095L22.36 12.8302ZM21.4166 13.8726C21.8469 13.6507 22.182 13.2804 22.36 12.8302L20.5 12.095V12.095L21.4166 13.8726ZM20.2381 14.1312C20.4417 14.1108 20.6431 14.0912 20.8132 14.0626C20.9931 14.0324 21.2028 13.9828 21.4166 13.8726L20.5 12.095C20.5445 12.0721 20.5612 12.077 20.482 12.0902C20.393 12.1052 20.2691 12.1181 20.0391 12.1411L20.2381 14.1312ZM20.303 14.1225L20.303 14.1225L19.9742 12.1497L19.9742 12.1497L20.303 14.1225ZM19.2889 14.2261C19.206 14.2893 19.1693 14.2692 19.3644 14.2341C19.5498 14.2007 19.811 14.1739 20.2381 14.1312L20.0391 12.1411C19.6456 12.1805 19.2913 12.2151 19.0102 12.2657C18.7386 12.3146 18.3842 12.4008 18.0762 12.6357L19.2889 14.2261ZM19.2889 14.2261L19.2889 14.2261L18.0762 12.6357C17.5046 13.0716 17.2108 13.7807 17.3068 14.4931L19.2889 14.2261ZM19.8929 14.9643C19.6212 14.6322 19.4555 14.4285 19.3479 14.2738C19.2348 14.1111 19.275 14.1228 19.2889 14.2261L17.3068 14.4931C17.3585 14.877 17.5481 15.1886 17.7056 15.4152C17.8686 15.6497 18.0946 15.9247 18.345 16.2308L19.8929 14.9643ZM20.5433 15.9803C20.4701 15.7513 20.3569 15.5679 20.251 15.4193C20.151 15.2789 20.0225 15.1227 19.8929 14.9643L18.345 16.2308C18.4914 16.4097 18.5698 16.5064 18.6222 16.5799C18.6688 16.6453 18.6535 16.6369 18.6383 16.5892L20.5433 15.9803ZM20.4733 17.3846C20.6658 16.9404 20.6907 16.4415 20.5433 15.9803L18.6383 16.5892L18.6383 16.5892L20.4733 17.3846ZM19.725 18.3309C19.8697 18.1862 20.0131 18.0436 20.1266 17.9138C20.2467 17.7765 20.3776 17.6053 20.4733 17.3846L18.6383 16.5892C18.6582 16.5433 18.6742 16.5365 18.6213 16.5969C18.5619 16.6648 18.4742 16.7532 18.3108 16.9167L19.725 18.3309ZM18.8314 19.2245L19.725 18.3309L18.3108 16.9167L17.4172 17.8102L18.8314 19.2245ZM17.8849 19.9729C18.1056 19.8773 18.2769 19.7463 18.4142 19.6262C18.544 19.5126 18.6867 19.3692 18.8314 19.2245L17.4172 17.8103C17.2537 17.9737 17.1653 18.0614 17.0974 18.1209C17.0369 18.1737 17.0437 18.1577 17.0897 18.1378L17.8849 19.9729ZM16.481 20.0429C16.942 20.1902 17.4408 20.1653 17.8849 19.9729L17.0897 18.1378H17.0897L16.481 20.0429ZM15.4647 19.3924C15.6231 19.522 15.7793 19.6505 15.9198 19.7506C16.0684 19.8565 16.2519 19.9697 16.481 20.0429L17.0897 18.1378C17.1374 18.153 17.1457 18.1683 17.0803 18.1217C17.0068 18.0693 16.9101 17.9909 16.7312 17.8445L15.4647 19.3924ZM15.4732 19.3993L15.4732 19.3993L16.7226 17.8376L16.7226 17.8375L15.4732 19.3993ZM14.7262 18.7881C14.6228 18.7742 14.6111 18.7341 14.7738 18.8472C14.9286 18.9547 15.1324 19.1205 15.4647 19.3924L16.7311 17.8445C16.425 17.5939 16.1499 17.3679 15.9152 17.2048C15.6886 17.0473 15.3769 16.8577 14.9928 16.806L14.7262 18.7881ZM14.7262 18.7881H14.7262L14.9928 16.806C14.2807 16.7102 13.5719 17.0038 13.136 17.5751L14.7262 18.7881ZM14.6312 19.7378C14.6739 19.3105 14.7008 19.0492 14.7342 18.8636C14.7693 18.6685 14.7894 18.7052 14.7262 18.7882L13.136 17.5751C12.901 17.8832 12.8147 18.2378 12.7658 18.5094C12.7152 18.7907 12.6805 19.1451 12.6411 19.5388L14.6312 19.7378ZM14.3724 20.917C14.4828 20.7031 14.5324 20.4932 14.5626 20.3132C14.5912 20.143 14.6108 19.9415 14.6312 19.7378L12.6411 19.5388C12.6181 19.769 12.6052 19.8929 12.5902 19.982C12.5769 20.0612 12.572 20.0445 12.595 20L14.3724 20.917ZM13.3306 21.8598C13.7805 21.6819 14.1506 21.3469 14.3724 20.917L12.595 20L12.595 20L13.3306 21.8598ZM12.1316 22C12.3363 22 12.5387 22.0005 12.7109 21.989C12.893 21.9768 13.1068 21.9483 13.3306 21.8598L12.595 20C12.6416 19.9816 12.6577 19.9881 12.5776 19.9935C12.4875 19.9995 12.3629 20 12.1316 20V22ZM10.8682 22H12.1316V20H10.8682V22ZM9.6696 21.8599C9.89335 21.9484 10.107 21.9769 10.2891 21.989C10.4613 22.0005 10.6636 22 10.8682 22V20C10.637 20 10.5125 19.9995 10.4224 19.9935C10.3423 19.9881 10.3584 19.9816 10.405 20L9.6696 21.8599ZM8.6275 20.9168C8.84933 21.3469 9.21958 21.682 9.6696 21.8599L10.405 20L8.6275 20.9168ZM8.36882 19.7381C8.38918 19.9417 8.4088 20.1431 8.43737 20.3132C8.46759 20.4932 8.51721 20.703 8.6275 20.9168L10.405 20C10.4279 20.0445 10.4231 20.0612 10.4098 19.982C10.3948 19.893 10.3819 19.7691 10.3589 19.539L8.36882 19.7381ZM8.27387 18.7885C8.2106 18.7056 8.23073 18.6689 8.26584 18.864C8.29922 19.0495 8.32609 19.3108 8.36882 19.7381L10.3589 19.539C10.3195 19.1454 10.2848 18.791 10.2342 18.5098C10.1853 18.2381 10.099 17.8836 9.86397 17.5755L8.27387 18.7885ZM8.27387 18.7885L9.86397 17.5755C9.42815 17.0042 8.71939 16.7106 8.00728 16.8064L8.27387 18.7885ZM7.53531 19.3928C7.86763 19.1209 8.0714 18.9551 8.22619 18.8476C8.38895 18.7345 8.37724 18.7746 8.27387 18.7885L8.00727 16.8064C7.62318 16.858 7.31149 17.0477 7.08481 17.2052C6.85015 17.3683 6.57504 17.5944 6.26884 17.8449L7.53531 19.3928ZM7.56643 19.3663L7.56644 19.3663L6.23771 17.8714L6.2377 17.8715L7.56643 19.3663ZM6.51887 20.0434C6.74807 19.9702 6.9315 19.8569 7.08013 19.751C7.22064 19.6509 7.37691 19.5224 7.5353 19.3928L6.26883 17.8449C6.08988 17.9913 5.99316 18.0698 5.91963 18.1222C5.85422 18.1688 5.86258 18.1535 5.91029 18.1383L6.51887 20.0434ZM5.11515 19.9734C5.55919 20.1658 6.05791 20.1907 6.51887 20.0434L5.91029 18.1383L5.91029 18.1383L5.11515 19.9734ZM4.1685 19.2249C4.31321 19.3696 4.45592 19.513 4.58577 19.6266C4.72313 19.7468 4.89438 19.8777 5.11515 19.9734L5.91029 18.1383C5.95624 18.1582 5.96304 18.1742 5.90259 18.1213C5.83464 18.0619 5.7462 17.9742 5.58271 17.8107L4.1685 19.2249ZM3.27506 18.3315L4.1685 19.2249L5.58271 17.8107L4.68927 16.9172L3.27506 18.3315ZM2.52657 17.3848C2.62223 17.6056 2.75318 17.7768 2.87333 17.9142C2.98692 18.044 3.13036 18.1868 3.27506 18.3315L4.68928 16.9172C4.52579 16.7538 4.43809 16.6653 4.37864 16.5974C4.32577 16.5369 4.3418 16.5437 4.36171 16.5897L2.52657 17.3848ZM2.45656 15.9811C2.3093 16.4421 2.33417 16.9408 2.52657 17.3848L4.36171 16.5897V16.5897L2.45656 15.9811ZM3.10715 14.9647C2.97756 15.123 2.84903 15.2793 2.74892 15.4198C2.64303 15.5684 2.52977 15.7519 2.45656 15.9811L4.36171 16.5897C4.34647 16.6374 4.33119 16.6457 4.37779 16.5803C4.43018 16.5068 4.50865 16.4101 4.65506 16.2311L3.10715 14.9647ZM3.7114 14.2261C3.7253 14.1228 3.76548 14.1111 3.65237 14.2738C3.5448 14.4286 3.37903 14.6324 3.10715 14.9647L4.65506 16.2311C4.90558 15.9249 5.13162 15.6498 5.29469 15.4152C5.45222 15.1885 5.64188 14.8768 5.69355 14.4928L3.7114 14.2261ZM3.7114 14.2261L3.7114 14.2261L5.69355 14.4928C5.78934 13.7806 5.49575 13.0718 4.92445 12.636L3.7114 14.2261ZM2.76193 14.1312C3.18915 14.1739 3.45044 14.2008 3.63595 14.2342C3.83101 14.2693 3.79432 14.2894 3.7114 14.2261L4.92445 12.636C4.61633 12.4009 4.26184 12.3147 3.99017 12.2658C3.70894 12.2152 3.35458 12.1805 2.96093 12.1411L2.76193 14.1312ZM1.58323 13.8725C1.79705 13.9828 2.00683 14.0324 2.1868 14.0626C2.35693 14.0912 2.55831 14.1108 2.76193 14.1312L2.96094 12.1411C2.73089 12.1181 2.60701 12.1052 2.51798 12.0902C2.43878 12.0769 2.45549 12.0721 2.5 12.095L1.58323 13.8725ZM0.640095 12.8304C0.818031 13.2804 1.15311 13.6507 1.58323 13.8725L2.5 12.095H2.5L0.640095 12.8304ZM0.5 11.6318C0.5 11.8364 0.499483 12.0387 0.510979 12.2109C0.523139 12.393 0.551634 12.6066 0.640094 12.8304L2.5 12.095C2.51841 12.1416 2.51188 12.1577 2.50653 12.0776C2.50052 11.9875 2.5 11.863 2.5 11.6318H0.5ZM0.5 10.3683V11.6318H2.5V10.3683H0.5ZM0.640168 9.16944C0.551662 9.39323 0.523151 9.60697 0.510984 9.7891C0.499483 9.96127 0.5 10.1637 0.5 10.3683H2.5C2.5 10.1371 2.50052 10.0125 2.50654 9.92241C2.51189 9.84226 2.51842 9.85841 2.5 9.90499L0.640168 9.16944ZM1.58305 8.12757C1.15308 8.34939 0.818099 8.71954 0.640169 9.16944L2.5 9.90499L2.5 9.90499L1.58305 8.12757ZM2.76205 7.86881C2.55837 7.88917 2.35694 7.9088 2.18677 7.93737C2.00676 7.9676 1.79692 8.01724 1.58305 8.12757L2.5 9.90499C2.45548 9.92795 2.43877 9.92306 2.51798 9.90976C2.60704 9.8948 2.73094 9.88189 2.96105 9.85888L2.76205 7.86881ZM2.86155 7.86384H2.86155V9.86384H2.86155V7.86384ZM2.86156 7.86384H2.86155V9.86384H2.86156V7.86384ZM3.71177 7.77383C3.79471 7.71055 3.83141 7.73069 3.6363 7.7658C3.45075 7.7992 3.18939 7.82607 2.76205 7.86881L2.96106 9.85888C3.35482 9.81951 3.70927 9.7848 3.99056 9.73417C4.26231 9.68527 4.6169 9.59894 4.92506 9.36378L3.71177 7.77383ZM3.71177 7.77383L3.71178 7.77383L4.92506 9.36379C5.49613 8.92801 5.78962 8.21944 5.69396 7.50749L3.71177 7.77383ZM3.10732 7.03506C3.37929 7.36746 3.54511 7.5713 3.65272 7.72614C3.76586 7.88895 3.72567 7.87724 3.71177 7.77383L5.69396 7.50749C5.64234 7.1233 5.45263 6.81151 5.29506 6.58478C5.13195 6.35006 4.90584 6.07487 4.65523 5.76858L3.10732 7.03506ZM2.45652 6.01822C2.52973 6.24751 2.64303 6.43102 2.74896 6.5797C2.8491 6.72027 2.97768 6.8766 3.10732 7.03506L4.65523 5.76858C4.50876 5.58956 4.43026 5.49279 4.37785 5.41923C4.33123 5.35379 4.34651 5.36215 4.36175 5.40988L2.45652 6.01822ZM2.52651 4.61498C2.33424 5.05887 2.30938 5.5574 2.45652 6.01822L4.36175 5.40988L2.52651 4.61498ZM3.27523 3.66798C3.13047 3.81274 2.98698 3.9555 2.87335 4.08539C2.75316 4.2228 2.62217 4.39412 2.52651 4.61498L4.36175 5.40988C4.34184 5.45585 4.3258 5.46265 4.3787 5.40219C4.43816 5.33421 4.52589 5.24574 4.68944 5.0822L3.27523 3.66798ZM4.16855 2.77466L3.27523 3.66798L4.68944 5.0822L5.58276 4.18888L4.16855 2.77466ZM4.16855 2.77466L4.16855 2.77466L5.58276 4.18888L5.58276 4.18887L4.16855 2.77466ZM5.1152 2.02616C4.89443 2.12181 4.72317 2.25276 4.58582 2.37292C4.45597 2.48651 4.31325 2.62995 4.16855 2.77466L5.58276 4.18887C5.74625 4.02538 5.83469 3.93768 5.90264 3.87824C5.96309 3.82536 5.95629 3.84139 5.91034 3.8613L5.1152 2.02616ZM6.51892 1.95614C6.05795 1.80889 5.55923 1.83377 5.1152 2.02615L5.91033 3.8613H5.91034L6.51892 1.95614ZM7.53543 2.60681C7.37702 2.47719 7.22073 2.34865 7.08021 2.24853C6.93158 2.14264 6.74813 2.02936 6.51892 1.95614L5.91034 3.8613C5.86262 3.84606 5.85426 3.83078 5.91969 3.8774C5.99324 3.9298 6.08999 4.00829 6.26896 4.15472L7.53543 2.60681ZM8.27391 3.21101C8.37727 3.22493 8.38897 3.26509 8.22621 3.15198C8.07144 3.04441 7.86769 2.87865 7.53543 2.60681L6.26896 4.15472C6.57512 4.40521 6.85018 4.63122 7.08477 4.79427C7.31138 4.95176 7.623 5.14141 8.00697 5.19312L8.27391 3.21101ZM8.27391 3.21101L8.27391 3.21101L8.00697 5.19312C8.71932 5.28905 9.42836 4.99536 9.86422 4.42382L8.27391 3.21101ZM8.36883 2.2618C8.32612 2.6889 8.29926 2.95012 8.26589 3.13558C8.2308 3.33059 8.21068 3.29392 8.27391 3.21101L9.86422 4.42382C10.0992 4.11576 10.1854 3.76136 10.2343 3.48976C10.2849 3.20861 10.3196 2.85435 10.3589 2.46081L8.36883 2.2618ZM8.62739 1.08341C8.51716 1.29719 8.46756 1.50692 8.43736 1.68683C8.4088 1.85692 8.38919 2.05824 8.36883 2.2618L10.3589 2.46081C10.3819 2.23082 10.3948 2.10698 10.4098 2.01798C10.423 1.9388 10.4279 1.9555 10.405 2L8.62739 1.08341ZM9.66982 0.140018C9.21962 0.317961 8.84924 0.653151 8.62739 1.08341L10.405 2L10.405 2L9.66982 0.140018ZM10.8681 0C10.6635 0 10.4612 -0.000516891 10.2892 0.0109727C10.1071 0.0231264 9.89351 0.051606 9.66982 0.140019L10.405 2C10.3584 2.0184 10.3423 2.01188 10.4224 2.00653C10.5125 2.00052 10.637 2 10.8681 2V0ZM12.1318 0H10.8681V2H12.1318V0ZM13.3304 0.140096C13.1066 0.0516348 12.893 0.0231392 12.7109 0.0109788C12.5387 -0.000517249 12.3364 0 12.1318 0V2C12.363 2 12.4875 2.00052 12.5776 2.00653C12.6577 2.01188 12.6416 2.01841 12.595 2L13.3304 0.140096ZM14.3725 1.08322C14.1507 0.653116 13.7804 0.318033 13.3304 0.140096L12.595 2L12.595 2L14.3725 1.08322ZM14.5 11C14.5 12.6569 13.1569 14 11.5 14V16C14.2614 16 16.5 13.7614 16.5 11H14.5ZM11.5 8C13.1569 8 14.5 9.34315 14.5 11H16.5C16.5 8.23858 14.2614 6 11.5 6V8ZM8.5 11C8.5 9.34315 9.84315 8 11.5 8V6C8.73858 6 6.5 8.23858 6.5 11H8.5ZM11.5 14C9.84315 14 8.5 12.6569 8.5 11H6.5C6.5 13.7614 8.73858 16 11.5 16V14Z" fill="#FFC100"/>
</svg>
