<svg width="35" height="36" viewBox="0 0 35 36" fill="none" xmlns="http://www.w3.org/2000/svg">
<g filter="url(#filter0_i_5_10)">
<g filter="url(#filter1_i_5_10)">
<path d="M20.9754 2.80679L21.9707 2.71019L21.9707 2.71019L20.9754 2.80679ZM21.1195 4.29137L20.1241 4.38797L20.1241 4.38797L21.1195 4.29137ZM21.9215 7.01613L21.5442 7.94225L21.5442 7.94225L21.9215 7.01613ZM24.3992 5.62732L25.0437 6.3919L25.0437 6.3919L24.3992 5.62732ZM25.4081 4.77678L24.7636 4.01219L24.7636 4.01219L25.4081 4.77678ZM26.8154 3.94174L26.7655 4.94049L26.7655 4.94049L26.8154 3.94174ZM28.1323 4.91299L28.8499 4.21652L28.8499 4.21652L28.1323 4.91299ZM30.2769 7.12257L29.5594 7.81904L29.5594 7.81904L30.2769 7.12257ZM30.408 9.75928L29.6249 9.1374L29.6249 9.1374L30.408 9.75928ZM29.3967 11.0327L30.1798 11.6546L30.1798 11.6546L29.3967 11.0327ZM28.123 13.4722L29.0446 13.0842L29.0446 13.0842L28.123 13.4722ZM30.758 14.266L30.6555 15.2607L30.6555 15.2607L30.758 14.266ZM32.205 14.4151L32.3075 13.4203L32.3075 13.4203L32.205 14.4151ZM33.7425 14.8324L34.4849 14.1625L34.4849 14.1625L33.7425 14.8324ZM32.205 21.5849L32.3075 22.5797L32.3075 22.5797L32.205 21.5849ZM30.7586 21.734L30.6561 20.7392L30.6561 20.7392L30.7586 21.734ZM28.1236 22.5278L27.2019 22.1397L27.2019 22.1397L28.1236 22.5278ZM29.3973 24.9672L30.1804 24.3453L30.1804 24.3453L29.3973 24.9672ZM30.4081 26.24L29.625 26.8618L29.625 26.8618L30.4081 26.24ZM30.277 28.8767L30.9946 29.5732L30.9946 29.5732L30.277 28.8767ZM28.1324 31.0863L28.85 31.7827L28.85 31.7827L28.1324 31.0863ZM26.8155 32.0575L26.7655 31.0588L26.7655 31.0588L26.8155 32.0575ZM25.4082 31.2225L26.0527 30.4579L26.0527 30.4579L25.4082 31.2225ZM24.3992 30.3719L25.0438 29.6073L25.0438 29.6073L24.3992 30.3719ZM21.1195 31.7079L20.1242 31.6113L20.1242 31.6113L21.1195 31.7079ZM20.9754 33.1932L21.9707 33.2898L21.9707 33.2898L20.9754 33.1932ZM14.0246 33.1932L15.02 33.0966L15.02 33.0966L14.0246 33.1932ZM13.8805 31.7085L12.8852 31.8051L12.8852 31.8051L13.8805 31.7085ZM10.6008 30.3726L9.95632 29.608L9.95632 29.608L10.6008 30.3726ZM9.59172 31.2232L8.94719 30.4587L8.94719 30.4587L9.59172 31.2232ZM8.18445 32.0583L8.2344 31.0595L8.23439 31.0595L8.18445 32.0583ZM6.86751 31.087L6.14993 31.7835L6.14993 31.7835L6.86751 31.087ZM4.72292 28.8775L3.94681 29.508L3.97462 29.5423L4.00534 29.5739L4.72292 28.8775ZM4.72291 28.8774L5.49903 28.2468L5.47121 28.2126L5.44049 28.181L4.72291 28.8774ZM3.82988 27.6002L4.82865 27.5506L4.82865 27.5506L3.82988 27.6002ZM4.59186 26.2407L5.37497 26.8626L5.37497 26.8626L4.59186 26.2407ZM5.60316 24.9672L6.38627 25.5891L6.38627 25.5891L5.60316 24.9672ZM4.24191 21.734L4.3444 20.7393L4.3444 20.7393L4.24191 21.734ZM2.79503 21.5849L2.69254 22.5797L2.69254 22.5797L2.79503 21.5849ZM1.25754 14.8324L0.515085 14.1625L0.515083 14.1625L1.25754 14.8324ZM2.79502 14.4151L2.69254 13.4203L2.69254 13.4203L2.79502 14.4151ZM4.24253 14.2659V13.2659H4.19115L4.14004 13.2712L4.24253 14.2659ZM4.24254 14.2659V15.2659H4.29392L4.34503 15.2607L4.24254 14.2659ZM6.87753 13.4721L5.95588 13.0841L5.95588 13.0841L6.87753 13.4721ZM5.60378 11.0327L4.82067 11.6546L4.82067 11.6546L5.60378 11.0327ZM4.59193 9.75851L3.80882 10.3804L3.80882 10.3804L4.59193 9.75851ZM3.82995 8.39902L4.82872 8.44867L4.82872 8.44867L3.82995 8.39902ZM4.72299 7.1218L5.44057 7.81827L5.44057 7.81827L4.72299 7.1218ZM6.86758 4.91222L6.15 4.21575L6.15 4.21575L6.86758 4.91222ZM8.18453 3.94096L8.23447 4.93972L8.23447 4.93972L8.18453 3.94096ZM9.59179 4.77601L10.2363 4.01142L10.2363 4.01142L9.59179 4.77601ZM10.6009 5.62668L11.2454 4.86209L11.2454 4.86209L10.6009 5.62668ZM13.8806 4.29072L12.8853 4.19412L12.8853 4.19412L13.8806 4.29072ZM14.0246 2.80679L15.02 2.9034L15.02 2.9034L14.0246 2.80679ZM21.9707 2.71019C21.9316 2.3076 21.895 1.90988 21.8207 1.58534C21.74 1.23295 21.5893 0.839263 21.2365 0.519051L19.8924 2C19.8255 1.93931 19.8387 1.89001 19.8711 2.03175C19.91 2.20134 19.9358 2.44749 19.9801 2.9034L21.9707 2.71019ZM22.1148 4.19476L21.9707 2.71019L19.9801 2.9034L20.1241 4.38797L22.1148 4.19476ZM22.2987 6.09002C22.4769 6.16259 22.4303 6.30836 22.3417 5.95157C22.2534 5.59579 22.1989 5.06087 22.1148 4.19476L20.1241 4.38797C20.2016 5.18639 20.2682 5.89985 20.4006 6.43333C20.5328 6.9658 20.8064 7.64169 21.5442 7.94225L22.2987 6.09002ZM23.7546 4.86274C23.0893 5.42359 22.6765 5.76812 22.3647 5.96094C22.0521 6.1543 22.1206 6.01745 22.2987 6.09002L21.5442 7.94225C22.2821 8.2428 22.9501 7.95048 23.4167 7.66191C23.8842 7.37279 24.4304 6.90892 25.0437 6.3919L23.7546 4.86274ZM24.7636 4.01219L23.7546 4.86274L25.0437 6.3919L26.0527 5.54136L24.7636 4.01219ZM26.8653 2.94298C26.3794 2.91868 25.9877 3.09761 25.6777 3.29659C25.3918 3.48003 25.0808 3.74482 24.7636 4.01219L26.0527 5.54136C26.4114 5.23893 26.6074 5.07636 26.7578 4.97982C26.8841 4.89881 26.8581 4.94512 26.7655 4.94049L26.8653 2.94298ZM28.8499 4.21652C28.561 3.91884 28.278 3.62435 28.0118 3.4133C27.7231 3.18439 27.3513 2.96728 26.8653 2.94298L26.7655 4.94049C26.6728 4.93586 26.6516 4.88718 26.7691 4.98038C26.9092 5.09145 27.088 5.27275 27.4148 5.60947L28.8499 4.21652ZM30.9945 6.42609L28.8499 4.21652L27.4148 5.60947L29.5594 7.81904L30.9945 6.42609ZM32.1687 8.35015C32.1457 7.88644 31.9467 7.52719 31.7347 7.2448C31.5396 6.98503 31.2677 6.70752 30.9945 6.42609L29.5594 7.81904C29.8691 8.13816 30.0343 8.31107 30.1354 8.44568C30.2194 8.55766 30.1755 8.53675 30.1712 8.44944L32.1687 8.35015ZM31.1911 10.3812C31.435 10.074 31.6781 9.77093 31.8464 9.4931C32.0294 9.19107 32.1918 8.81386 32.1687 8.35015L30.1712 8.44944C30.1669 8.36212 30.2085 8.33697 30.1359 8.45674C30.0487 8.6007 29.9014 8.78914 29.6249 9.1374L31.1911 10.3812ZM30.1798 11.6546L31.1911 10.3812L29.6249 9.1374L28.6136 10.4109L30.1798 11.6546ZM29.0446 13.0842C29.1161 13.2539 28.9895 13.3226 29.1635 13.0215C29.3394 12.7172 29.6575 12.3123 30.1798 11.6546L28.6136 10.4109C28.1335 11.0154 27.6998 11.5573 27.432 12.0206C27.1623 12.4872 26.9 13.1445 27.2013 13.8602L29.0446 13.0842ZM30.8605 13.2712C30.025 13.1852 29.5131 13.1297 29.1725 13.0429C28.8355 12.957 28.9731 12.9144 29.0446 13.0842L27.2013 13.8602C27.5027 14.576 28.1561 14.8477 28.6783 14.9809C29.1968 15.1131 29.8875 15.1816 30.6555 15.2607L30.8605 13.2712ZM32.3075 13.4203L30.8605 13.2712L30.6555 15.2607L32.1025 15.4098L32.3075 13.4203ZM34.4849 14.1625C34.1672 13.8104 33.7762 13.6584 33.4258 13.5761C33.1031 13.5003 32.7076 13.4615 32.3075 13.4203L32.1025 15.4098C32.5557 15.4565 32.8001 15.4836 32.9685 15.5232C33.1091 15.5562 33.0601 15.5689 33 15.5023L34.4849 14.1625ZM35 16.4045C35 16.0023 35.0019 15.6049 34.9596 15.2762C34.9137 14.9191 34.8026 14.5146 34.4849 14.1625L33 15.5023C32.9399 15.4356 32.9576 15.3882 32.976 15.5315C32.9981 15.703 33 15.9489 33 16.4045H35ZM35 19.5955V16.4045H33V19.5955H35ZM34.4849 21.8375C34.8026 21.4854 34.9137 21.0809 34.9596 20.7238C35.0019 20.3951 35 19.9977 35 19.5955H33C33 20.0511 32.9981 20.297 32.976 20.4685C32.9576 20.6118 32.9399 20.5644 33 20.4977L34.4849 21.8375ZM32.3075 22.5797C32.7076 22.5385 33.1031 22.4997 33.4258 22.4239C33.7762 22.3416 34.1672 22.1896 34.4849 21.8375L33 20.4977C33.0601 20.4311 33.1091 20.4438 32.9685 20.4768C32.8001 20.5164 32.5557 20.5435 32.1025 20.5902L32.3075 22.5797ZM30.8611 22.7287L32.3075 22.5797L32.1025 20.5902L30.6561 20.7392L30.8611 22.7287ZM29.0452 22.9158C28.9738 23.0855 28.8362 23.043 29.1731 22.9571C29.5137 22.8702 30.0256 22.8148 30.8611 22.7287L30.6561 20.7392C29.8881 20.8184 29.1975 20.8868 28.6789 21.0191C28.1567 21.1522 27.5033 21.424 27.2019 22.1397L29.0452 22.9158ZM30.1804 24.3453C29.6581 23.6876 29.34 23.2827 29.1641 22.9784C28.9901 22.6774 29.1167 22.746 29.0452 22.9158L27.2019 22.1397C26.9006 22.8555 27.1629 23.5127 27.4326 23.9793C27.7004 24.4426 28.1341 24.9845 28.6142 25.5891L30.1804 24.3453ZM31.1912 25.6181L30.1804 24.3453L28.6142 25.5891L29.625 26.8618L31.1912 25.6181ZM32.1688 27.6491C32.1919 27.1854 32.0295 26.8082 31.8465 26.5062C31.6782 26.2283 31.4351 25.9252 31.1912 25.6181L29.625 26.8618C29.9015 27.2101 30.0487 27.3985 30.136 27.5425C30.2085 27.6623 30.1669 27.6371 30.1713 27.5498L32.1688 27.6491ZM30.9946 29.5732C31.2677 29.2917 31.5397 29.0142 31.7348 28.7545C31.9468 28.4721 32.1458 28.1128 32.1688 27.6491L30.1713 27.5498C30.1756 27.4625 30.2195 27.4416 30.1354 27.5536C30.0344 27.6882 29.8692 27.8611 29.5594 28.1802L30.9946 29.5732ZM28.85 31.7827L30.9946 29.5732L29.5594 28.1802L27.4148 30.3898L28.85 31.7827ZM26.8654 33.0563C27.3514 33.032 27.7232 32.8149 28.0119 32.5859C28.278 32.3749 28.5611 32.0804 28.85 31.7827L27.4148 30.3898C27.088 30.7265 26.9093 30.9078 26.7692 31.0189C26.6517 31.1121 26.6729 31.0634 26.7655 31.0588L26.8654 33.0563ZM24.7637 31.9871C25.0809 32.2544 25.3919 32.5192 25.6777 32.7027C25.9878 32.9016 26.3795 33.0806 26.8654 33.0563L26.7655 31.0588C26.8581 31.0541 26.8841 31.1004 26.7579 31.0194C26.6075 30.9229 26.4115 30.7603 26.0527 30.4579L24.7637 31.9871ZM23.7547 31.1365L24.7637 31.9871L26.0527 30.4579L25.0438 29.6073L23.7547 31.1365ZM22.2988 29.9092C22.1207 29.9818 22.0521 29.8449 22.3648 30.0383C22.6766 30.2311 23.0894 30.5757 23.7547 31.1365L25.0438 29.6073C24.4304 29.0903 23.8843 28.6265 23.4168 28.3373C22.9502 28.0488 22.2822 27.7564 21.5443 28.057L22.2988 29.9092ZM22.1149 31.8045C22.1989 30.9384 22.2535 30.4035 22.3418 30.0477C22.4304 29.6909 22.477 29.8367 22.2988 29.9092L21.5443 28.057C20.8065 28.3576 20.5328 29.0335 20.4007 29.5659C20.2683 30.0994 20.2017 30.8129 20.1242 31.6113L22.1149 31.8045ZM21.9707 33.2898L22.1149 31.8045L20.1242 31.6113L19.9801 33.0966L21.9707 33.2898ZM21.2365 35.4809C21.5893 35.1607 21.74 34.7671 21.8207 34.4147C21.895 34.0901 21.9316 33.6924 21.9707 33.2898L19.9801 33.0966C19.9358 33.5525 19.91 33.7987 19.8711 33.9683C19.8387 34.11 19.8255 34.0607 19.8924 34L21.2365 35.4809ZM18.9847 36C19.3892 36 19.7886 36.0019 20.1188 35.9593C20.4773 35.9131 20.8837 35.8012 21.2365 35.4809L19.8924 34C19.9592 33.9393 20.007 33.9572 19.8628 33.9758C19.6903 33.9981 19.4428 34 18.9847 34V36ZM16.0153 36H18.9847V34H16.0153V36ZM13.7635 35.4809C14.1163 35.8012 14.5227 35.9131 14.8812 35.9593C15.2114 36.0019 15.6108 36 16.0153 36V34C15.5572 34 15.3097 33.9981 15.1372 33.9758C14.993 33.9572 15.0408 33.9393 15.1076 34L13.7635 35.4809ZM13.0293 33.2898C13.0684 33.6924 13.105 34.0901 13.1794 34.4147C13.26 34.7671 13.4107 35.1607 13.7635 35.4809L15.1076 34C15.1745 34.0607 15.1614 34.11 15.1289 33.9683C15.0901 33.7987 15.0642 33.5525 15.02 33.0966L13.0293 33.2898ZM12.8852 31.8051L13.0293 33.2898L15.02 33.0966L14.8759 31.6119L12.8852 31.8051ZM12.7013 29.9099C12.5231 29.8373 12.5697 29.6915 12.6583 30.0483C12.7466 30.4041 12.8012 30.939 12.8852 31.8051L14.8759 31.6119C14.7984 30.8135 14.7318 30.1 14.5994 29.5666C14.4672 29.0341 14.1936 28.3582 13.4558 28.0576L12.7013 29.9099ZM11.2454 31.1372C11.9107 30.5763 12.3235 30.2318 12.6353 30.039C12.9479 29.8456 12.8794 29.9824 12.7013 29.9099L13.4558 28.0576C12.7179 27.7571 12.0499 28.0494 11.5833 28.338C11.1158 28.6271 10.5696 29.091 9.95632 29.608L11.2454 31.1372ZM10.2362 31.9878L11.2454 31.1372L9.95632 29.608L8.94719 30.4587L10.2362 31.9878ZM8.13451 33.057C8.62047 33.0813 9.01212 32.9024 9.32219 32.7034C9.60805 32.52 9.91907 32.2552 10.2362 31.9878L8.94719 30.4587C8.58842 30.7611 8.39248 30.9237 8.24203 31.0202C8.11579 31.1012 8.14178 31.0549 8.2344 31.0595L8.13451 33.057ZM6.14993 31.7835C6.43885 32.0812 6.7219 32.3757 6.98804 32.5867C7.27671 32.8156 7.64856 33.0327 8.13452 33.057L8.23439 31.0595C8.32701 31.0642 8.34825 31.1128 8.23072 31.0196C8.09065 30.9086 7.9119 30.7273 7.58509 30.3905L6.14993 31.7835ZM4.00534 29.5739L6.14993 31.7835L7.58509 30.3905L5.4405 28.181L4.00534 29.5739ZM3.9468 29.508L3.94681 29.508L5.49904 28.2469L5.49903 28.2468L3.9468 29.508ZM2.83111 27.6499C2.85416 28.1136 3.05313 28.4728 3.26516 28.7552C3.46021 29.015 3.73218 29.2925 4.00533 29.5739L5.44049 28.181C5.13076 27.8618 4.96557 27.6889 4.8645 27.5543C4.78042 27.4424 4.82431 27.4633 4.82865 27.5506L2.83111 27.6499ZM3.80875 25.6189C3.56485 25.926 3.32174 26.2291 3.15341 26.5069C2.97042 26.809 2.80807 27.1862 2.83111 27.6499L4.82865 27.5506C4.83299 27.6379 4.79139 27.663 4.86395 27.5433C4.95118 27.3993 5.09841 27.2109 5.37497 26.8626L3.80875 25.6189ZM4.82005 24.3454L3.80875 25.6189L5.37497 26.8626L6.38627 25.5891L4.82005 24.3454ZM5.95526 22.9158C5.88379 22.7461 6.0104 22.6774 5.83638 22.9785C5.66046 23.2828 5.34236 23.6876 4.82005 24.3454L6.38627 25.5891C6.86638 24.9846 7.30009 24.4427 7.56791 23.9794C7.83762 23.5128 8.0999 22.8555 7.79856 22.1398L5.95526 22.9158ZM4.13942 22.7287C4.97489 22.8148 5.48677 22.8702 5.82739 22.9571C6.16434 23.043 6.02674 23.0856 5.95526 22.9158L7.79856 22.1398C7.49722 21.424 6.84382 21.1523 6.32159 21.0191C5.80304 20.8869 5.11236 20.8184 4.3444 20.7393L4.13942 22.7287ZM2.69254 22.5797L4.13943 22.7287L4.3444 20.7393L2.89751 20.5902L2.69254 22.5797ZM0.515084 21.8375C0.832759 22.1896 1.2238 22.3416 1.57425 22.4239C1.89693 22.4997 2.29244 22.5385 2.69254 22.5797L2.89751 20.5902C2.44432 20.5435 2.19986 20.5164 2.0315 20.4768C1.89092 20.4438 1.93987 20.4311 2 20.4977L0.515084 21.8375ZM0 19.5955C0 19.9977 -0.00193706 20.3951 0.0403735 20.7238C0.086325 21.0809 0.197409 21.4854 0.515084 21.8375L2 20.4977C2.06013 20.5644 2.04245 20.6118 2.02401 20.4685C2.00194 20.297 2 20.0511 2 19.5955H0ZM0 16.4045V19.5955H2V16.4045H0ZM0.515083 14.1625C0.197409 14.5146 0.0863251 14.9191 0.0403735 15.2762C-0.00193706 15.6049 0 16.0023 0 16.4045H2C2 15.9489 2.00194 15.703 2.02401 15.5315C2.04245 15.3882 2.06013 15.4356 2 15.5023L0.515083 14.1625ZM2.69254 13.4203C2.29244 13.4615 1.89693 13.5003 1.57425 13.5761C1.2238 13.6584 0.832759 13.8104 0.515085 14.1625L2 15.5023C1.93987 15.5689 1.89092 15.5562 2.0315 15.5232C2.19986 15.4836 2.44432 15.4565 2.89751 15.4098L2.69254 13.4203ZM4.14004 13.2712L2.69254 13.4203L2.89751 15.4098L4.34502 15.2607L4.14004 13.2712ZM4.24254 13.2659H4.24253V15.2659H4.24254V13.2659ZM5.95588 13.0841C6.02735 12.9143 6.16496 12.9569 5.82801 13.0428C5.48739 13.1297 4.97551 13.1851 4.14005 13.2712L4.34503 15.2607C5.11298 15.1815 5.80366 15.113 6.32222 14.9808C6.84444 14.8476 7.49783 14.5759 7.79918 13.8602L5.95588 13.0841ZM4.82067 11.6546C5.34298 12.3123 5.66108 12.7171 5.837 13.0215C6.01102 13.3225 5.88441 13.2539 5.95588 13.0841L7.79918 13.8602C8.10052 13.1444 7.83824 12.4872 7.56852 12.0206C7.3007 11.5573 6.867 11.0154 6.38689 10.4108L4.82067 11.6546ZM3.80882 10.3804L4.82067 11.6546L6.38689 10.4108L5.37504 9.13663L3.80882 10.3804ZM2.83119 8.34938C2.80814 8.81309 2.97049 9.1903 3.15348 9.49232C3.32181 9.77016 3.56492 10.0733 3.80882 10.3804L5.37504 9.13663C5.09848 8.78837 4.95125 8.59993 4.86403 8.45596C4.79146 8.3362 4.83306 8.36135 4.82872 8.44867L2.83119 8.34938ZM4.00541 6.42532C3.73226 6.70675 3.46029 6.98426 3.26524 7.24403C3.0532 7.52642 2.85424 7.88566 2.83119 8.34938L4.82872 8.44867C4.82438 8.53598 4.78049 8.55689 4.86458 8.44491C4.96565 8.3103 5.13084 8.13739 5.44057 7.81827L4.00541 6.42532ZM6.15 4.21575L4.00541 6.42532L5.44057 7.81827L7.58516 5.6087L6.15 4.21575ZM8.13459 2.94221C7.64863 2.96651 7.27678 3.18362 6.98811 3.41253C6.72197 3.62358 6.43892 3.91807 6.15 4.21575L7.58516 5.6087C7.91197 5.27198 8.09072 5.09068 8.23079 4.97961C8.34832 4.88641 8.32708 4.93509 8.23447 4.93972L8.13459 2.94221ZM10.2363 4.01142C9.91914 3.74405 9.60813 3.47926 9.32226 3.29582C9.01219 3.09684 8.62055 2.91791 8.13459 2.94221L8.23447 4.93972C8.14185 4.94435 8.11586 4.89804 8.24211 4.97905C8.39255 5.07559 8.5885 5.23816 8.94727 5.54059L10.2363 4.01142ZM11.2454 4.86209L10.2363 4.01142L8.94727 5.54059L9.95639 6.39126L11.2454 4.86209ZM12.7013 6.08938C12.8795 6.01681 12.948 6.15366 12.6354 5.96029C12.3236 5.76747 11.9108 5.42294 11.2454 4.86209L9.95639 6.39126C10.5697 6.90828 11.1159 7.37215 11.5834 7.66127C12.05 7.94984 12.718 8.24216 13.4558 7.94161L12.7013 6.08938ZM12.8853 4.19412C12.8012 5.06022 12.7466 5.59515 12.6583 5.95093C12.5698 6.30772 12.5232 6.16195 12.7013 6.08938L13.4558 7.94161C14.1937 7.64105 14.4673 6.96515 14.5995 6.43269C14.7319 5.89921 14.7984 5.18574 14.8759 4.38733L12.8853 4.19412ZM13.0293 2.71019L12.8853 4.19412L14.8759 4.38733L15.02 2.9034L13.0293 2.71019ZM13.7635 0.519051C13.4107 0.839263 13.26 1.23295 13.1794 1.58534C13.105 1.90988 13.0684 2.3076 13.0293 2.71019L15.02 2.9034C15.0642 2.44749 15.0901 2.20134 15.1289 2.03175C15.1614 1.89001 15.1745 1.93931 15.1076 2L13.7635 0.519051ZM16.0153 0C15.6108 0 15.2114 -0.00194815 14.8812 0.0406655C14.5227 0.086936 14.1163 0.198839 13.7635 0.519051L15.1076 2C15.0408 2.06069 14.993 2.04283 15.1372 2.02422C15.3097 2.00195 15.5572 2 16.0153 2V0ZM18.9847 0H16.0153V2H18.9847V0ZM21.2365 0.519051C20.8837 0.198839 20.4773 0.0869361 20.1188 0.0406655C19.7886 -0.00194815 19.3892 0 18.9847 0V2C19.4428 2 19.6903 2.00195 19.8628 2.02422C20.007 2.04283 19.9592 2.06069 19.8924 2L21.2365 0.519051ZM23.1 18C23.1 21.2316 20.5649 23.8 17.5 23.8V25.8C21.7253 25.8 25.1 22.2795 25.1 18H23.1ZM17.5 12.2C20.5649 12.2 23.1 14.7684 23.1 18H25.1C25.1 13.7205 21.7253 10.2 17.5 10.2V12.2ZM11.9 18C11.9 14.7684 14.4351 12.2 17.5 12.2V10.2C13.2747 10.2 9.9 13.7205 9.9 18H11.9ZM17.5 23.8C14.4351 23.8 11.9 21.2316 11.9 18H9.9C9.9 22.2795 13.2747 25.8 17.5 25.8V23.8Z" fill="#FFC100"/>
</g>
</g>
<defs>
<filter id="filter0_i_5_10" x="-1.52588e-05" y="-1.33514e-05" width="35" height="40" filterUnits="userSpaceOnUse" color-interpolation-filters="sRGB">
<feFlood flood-opacity="0" result="BackgroundImageFix"/>
<feBlend mode="normal" in="SourceGraphic" in2="BackgroundImageFix" result="shape"/>
<feColorMatrix in="SourceAlpha" type="matrix" values="0 0 0 0 0 0 0 0 0 0 0 0 0 0 0 0 0 0 127 0" result="hardAlpha"/>
<feOffset dy="4"/>
<feGaussianBlur stdDeviation="2"/>
<feComposite in2="hardAlpha" operator="arithmetic" k2="-1" k3="1"/>
<feColorMatrix type="matrix" values="0 0 0 0 0 0 0 0 0 0 0 0 0 0 0 0 0 0 0.25 0"/>
<feBlend mode="normal" in2="shape" result="effect1_innerShadow_5_10"/>
</filter>
<filter id="filter1_i_5_10" x="-1.52588e-05" y="-1.33514e-05" width="35" height="40" filterUnits="userSpaceOnUse" color-interpolation-filters="sRGB">
<feFlood flood-opacity="0" result="BackgroundImageFix"/>
<feBlend mode="normal" in="SourceGraphic" in2="BackgroundImageFix" result="shape"/>
<feColorMatrix in="SourceAlpha" type="matrix" values="0 0 0 0 0 0 0 0 0 0 0 0 0 0 0 0 0 0 127 0" result="hardAlpha"/>
<feOffset dy="4"/>
<feGaussianBlur stdDeviation="2"/>
<feComposite in2="hardAlpha" operator="arithmetic" k2="-1" k3="1"/>
<feColorMatrix type="matrix" values="0 0 0 0 0 0 0 0 0 0 0 0 0 0 0 0 0 0 0.25 0"/>
<feBlend mode="normal" in2="shape" result="effect1_innerShadow_5_10"/>
</filter>
</defs>
</svg>
