<svg width="33" height="34" viewBox="0 0 33 34" fill="none" xmlns="http://www.w3.org/2000/svg">
<path d="M16.5 0C13.2366 0 10.0465 0.997032 7.3331 2.86502C4.61969 4.733 2.50484 7.38804 1.25599 10.4944C0.00714919 13.6007 -0.319606 17.0189 0.31705 20.3165C0.953706 23.6142 2.52518 26.6433 4.83274 29.0208C7.14031 31.3983 10.0803 33.0174 13.281 33.6733C16.4817 34.3293 19.7993 33.9926 22.8143 32.7059C25.8293 31.4193 28.4062 29.2403 30.2192 26.4447C32.0323 23.6491 33 20.3623 33 17C32.9954 12.4928 31.2555 8.17153 28.1622 4.98444C25.0688 1.79735 20.8747 0.0047597 16.5 0ZM16.5 31.3846C13.7387 31.3846 11.0394 30.541 8.74339 28.9604C6.44743 27.3798 4.65794 25.1332 3.60123 22.5048C2.54451 19.8763 2.26803 16.984 2.80674 14.1937C3.34544 11.4034 4.67515 8.84026 6.62771 6.82854C8.58026 4.81682 11.068 3.44681 13.7762 2.89178C16.4845 2.33675 19.2917 2.62161 21.8429 3.71035C24.394 4.79908 26.5745 6.6428 28.1086 9.00833C29.6427 11.3739 30.4615 14.155 30.4615 17C30.4573 20.8137 28.985 24.47 26.3677 27.1667C23.7503 29.8634 20.2015 31.3803 16.5 31.3846ZM26.6538 17C26.6538 17.3468 26.5201 17.6794 26.2821 17.9247C26.0441 18.1699 25.7212 18.3077 25.3846 18.3077H16.5C16.1634 18.3077 15.8405 18.1699 15.6025 17.9247C15.3645 17.6794 15.2308 17.3468 15.2308 17V7.84615C15.2308 7.49933 15.3645 7.16671 15.6025 6.92147C15.8405 6.67623 16.1634 6.53846 16.5 6.53846C16.8366 6.53846 17.1595 6.67623 17.3975 6.92147C17.6355 7.16671 17.7692 7.49933 17.7692 7.84615V15.6923H25.3846C25.7212 15.6923 26.0441 15.8301 26.2821 16.0753C26.5201 16.3206 26.6538 16.6532 26.6538 17Z" fill="#FFC100"/>
</svg>
