<svg width="25" height="23" viewBox="0 0 25 23" fill="none" xmlns="http://www.w3.org/2000/svg">
<path d="M23.625 21H21V1.75C21 1.28587 20.8156 0.840752 20.4874 0.512563C20.1592 0.184374 19.7141 0 19.25 0H5.25C4.78587 0 4.34075 0.184374 4.01256 0.512563C3.68437 0.840752 3.5 1.28587 3.5 1.75V21H0.875C0.642936 21 0.420376 21.0922 0.256282 21.2563C0.0921872 21.4204 0 21.6429 0 21.875C0 22.1071 0.0921872 22.3296 0.256282 22.4937C0.420376 22.6578 0.642936 22.75 0.875 22.75H23.625C23.8571 22.75 24.0796 22.6578 24.2437 22.4937C24.4078 22.3296 24.5 22.1071 24.5 21.875C24.5 21.6429 24.4078 21.4204 24.2437 21.2563C24.0796 21.0922 23.8571 21 23.625 21ZM5.25 1.75H19.25V21H5.25V1.75ZM16.625 11.8125C16.625 12.0721 16.548 12.3258 16.4038 12.5417C16.2596 12.7575 16.0546 12.9258 15.8148 13.0251C15.5749 13.1244 15.311 13.1504 15.0564 13.0998C14.8018 13.0491 14.568 12.9241 14.3844 12.7406C14.2009 12.557 14.0759 12.3232 14.0252 12.0686C13.9746 11.814 14.0006 11.5501 14.0999 11.3102C14.1992 11.0704 14.3675 10.8654 14.5833 10.7212C14.7992 10.577 15.0529 10.5 15.3125 10.5C15.6606 10.5 15.9944 10.6383 16.2406 10.8844C16.4867 11.1306 16.625 11.4644 16.625 11.8125Z" fill="black"/>
</svg>
