<svg width="21" height="22" viewBox="0 0 21 22" fill="none" xmlns="http://www.w3.org/2000/svg">
<path fill-rule="evenodd" clip-rule="evenodd" d="M0.972164 7.50156C0.583344 8.29722 0.583344 9.20239 0.583344 11.0127V16.6666C0.583344 19.1807 0.583344 20.4378 1.41321 21.2189C2.2123 21.971 3.48037 21.9988 5.95834 21.9999V15.3333C5.95834 13.9884 7.0983 13 8.37501 13H12.625C13.9017 13 15.0417 13.9884 15.0417 15.3333V21.9999C17.5197 21.9988 18.7877 21.971 19.5868 21.2189C20.4167 20.4378 20.4167 19.1807 20.4167 16.6666V11.0127C20.4167 9.20239 20.4167 8.29722 20.0279 7.50156C19.639 6.70591 18.9088 6.11683 17.4484 4.93868L16.0317 3.79582C13.392 1.66631 12.0722 0.601562 10.5 0.601562C8.92783 0.601562 7.60798 1.66632 4.96828 3.79582L3.55162 4.93868C2.0912 6.11683 1.36098 6.70591 0.972164 7.50156ZM13.0417 21.9999V15.3333C13.0417 15.2055 12.9131 15 12.625 15H8.37501C8.08691 15 7.95834 15.2055 7.95834 15.3333V21.9999H13.0417Z" fill="#FFC100"/>
</svg>
